<?xml version="1.0" encoding="UTF-8" standalone="no"?>
<!-- Generator: Adobe Illustrator 19.0.0, SVG Export Plug-In . SVG Version: 6.00 Build 0)  -->

<svg
   xmlns:dc="http://purl.org/dc/elements/1.1/"
   xmlns:cc="http://creativecommons.org/ns#"
   xmlns:rdf="http://www.w3.org/1999/02/22-rdf-syntax-ns#"
   xmlns:svg="http://www.w3.org/2000/svg"
   xmlns="http://www.w3.org/2000/svg"
   xmlns:sodipodi="http://sodipodi.sourceforge.net/DTD/sodipodi-0.dtd"
   xmlns:inkscape="http://www.inkscape.org/namespaces/inkscape"
   version="1.1"
   id="Capa_1"
   x="0px"
   y="0px"
   viewBox="0 0 130 130"
   xml:space="preserve"
   sodipodi:docname="advise.svg"
   width="130"
   height="130"
   inkscape:version="0.92.5 (2060ec1f9f, 2020-04-08)"><metadata
   id="metadata2113"><rdf:RDF><cc:Work
       rdf:about=""><dc:format>image/svg+xml</dc:format><dc:type
         rdf:resource="http://purl.org/dc/dcmitype/StillImage" /><dc:title></dc:title></cc:Work></rdf:RDF></metadata><defs
   id="defs2111" /><sodipodi:namedview
   pagecolor="#ffffff"
   bordercolor="#666666"
   borderopacity="1"
   objecttolerance="10"
   gridtolerance="10"
   guidetolerance="10"
   inkscape:pageopacity="0"
   inkscape:pageshadow="2"
   inkscape:window-width="1362"
   inkscape:window-height="729"
   id="namedview2109"
   showgrid="false"
   inkscape:zoom="1"
   inkscape:cx="218.35506"
   inkscape:cy="120"
   inkscape:window-x="0"
   inkscape:window-y="18"
   inkscape:window-maximized="0"
   inkscape:current-layer="Capa_1" />
<g
   id="g2056"
   transform="matrix(0.2375,0,0,0.2375,10,6)">
	<path
   style="fill:#e05346"
   d="m 40,376 h 8 72 v 96 h 56 V 352 c 0,-17.672 -14.328,-32 -32,-32 H 104 72 v -72 72 h 32 40 40 8 v -48 h -72 v -40 c 0,-17.672 -14.328,-32 -32,-32 H 64 40 C 22.328,200 8,214.328 8,232 v 112 c 0,17.672 14.328,32 32,32 z"
   id="path2052"
   inkscape:connector-curvature="0" />
	<circle
   style="fill:#e05346"
   cx="64"
   cy="144"
   r="56"
   id="circle2054" />
</g>
<g
   id="g2062"
   transform="matrix(0.2375,0,0,0.2375,10,6)">
	<circle
   style="fill:#6accef"
   cx="416"
   cy="144"
   r="56"
   id="circle2058" />
	<path
   style="fill:#6accef"
   d="m 304,352 v 120 h 56 v -96 h 72 8 c 17.672,0 32,-14.328 32,-32 V 232 c 0,-17.672 -14.328,-32 -32,-32 h -24 -56 -32 l -56,-56 -32,32 72,72 h 72 v 72 h -48 c -17.672,0 -32,14.328 -32,32 z"
   id="path2060"
   inkscape:connector-curvature="0" />
</g>
<path
   style="fill:#fcac37;stroke-width:0.2375"
   d="M 86,7.9 H 48 c -2.0995,0 -3.8,1.7005 -3.8,3.8 v 15.2 c 0,2.0995 1.7005,3.8 3.8,3.8 h 3.8 V 44 L 65.1,30.7 H 86 c 2.0995,0 3.8,-1.7005 3.8,-3.8 V 11.7 C 89.8,9.6005 88.0995,7.9 86,7.9 Z"
   id="path2064"
   inkscape:connector-curvature="0" />
<g
   id="g2076"
   transform="matrix(0.2375,0,0,0.2375,10,6)">
	<path
   style="fill:#31324d"
   d="m 480,144 c 0,-35.288 -28.712,-64 -64,-64 -35.288,0 -64,28.712 -64,64 0,19.12 8.472,36.264 21.808,48 h -42.496 l -53.656,-53.656 c -3.128,-3.128 -8.184,-3.128 -11.312,0 l -32,32 c -3.128,3.128 -3.128,8.184 0,11.312 l 72,72 C 307.84,255.16 309.872,256 312,256 h 64 v 56 H 336 238.944 L 278.656,252.44 265.344,243.568 219.72,312 H 200 v -40 c 0,-4.424 -3.576,-8 -8,-8 H 128 V 232 C 128,215.136 117.472,200.744 102.672,194.872 118.024,183.176 128,164.752 128,144 128,108.712 99.288,80 64,80 28.712,80 0,108.712 0,144 0,164.752 9.976,183.176 25.328,194.872 10.528,200.744 0,215.136 0,232 v 112 c 0,22.056 17.944,40 40,40 v 96 h 16 v -96 h 56 v 88 c 0,4.424 3.576,8 8,8 h 56 c 4.424,0 8,-3.576 8,-8 V 352 c 0,-9 -2.984,-17.312 -8.016,-24 h 8.016 8 40 v 136 h -32 v 16 h 80 V 464 H 248 V 328 h 56.208 c -5.08,6.704 -8.208,14.96 -8.208,24 v 120 c 0,4.424 3.576,8 8,8 h 56 c 4.424,0 8,-3.576 8,-8 v -88 h 56 v 96 h 16 v -96 c 22.056,0 40,-17.944 40,-40 V 232 C 480,215.136 469.472,200.744 454.672,194.872 470.024,183.176 480,164.752 480,144 Z m -112,0 c 0,-26.472 21.528,-48 48,-48 26.472,0 48,21.528 48,48 0,26.472 -21.528,48 -48,48 -26.472,0 -48,-21.528 -48,-48 z m -352,0 c 0,-26.472 21.528,-48 48,-48 26.472,0 48,21.528 48,48 0,26.472 -21.528,48 -48,48 -26.472,0 -48,-21.528 -48,-48 z M 80,312 V 248 H 64 v 72 c 0,4.424 3.576,8 8,8 h 72 c 13.232,0 24,10.768 24,24 v 112 h -40 v -88 c 0,-4.424 -3.576,-8 -8,-8 H 40 C 26.768,368 16,357.232 16,344 V 232 c 0,-13.232 10.768,-24 24,-24 h 48 c 13.232,0 24,10.768 24,24 v 40 c 0,4.424 3.576,8 8,8 h 64 v 32 z M 440,208 c 13.232,0 24,10.768 24,24 v 112 c 0,13.232 -10.768,24 -24,24 h -80 c -4.424,0 -8,3.576 -8,8 v 88 H 312 V 352 c 0,-13.232 10.768,-24 24,-24 h 48 c 4.424,0 8,-3.576 8,-8 v -72 c 0,-4.424 -3.576,-8 -8,-8 h -68.688 l -64,-64 20.688,-20.688 50.344,50.344 C 323.84,207.16 325.872,208 328,208 Z"
   id="path2066"
   inkscape:connector-curvature="0" />
	<path
   style="fill:#31324d"
   d="m 172.936,167.392 c 0.992,0.416 2.032,0.608 3.064,0.608 2.08,0 4.128,-0.816 5.656,-2.344 L 235.312,112 H 320 c 13.232,0 24,-10.768 24,-24 V 24 C 344,10.768 333.232,0 320,0 H 160 c -13.232,0 -24,10.768 -24,24 v 64 c 0,13.232 10.768,24 24,24 h 8 v 48 c 0,3.232 1.944,6.16 4.936,7.392 z M 160,96 c -4.416,0 -8,-3.584 -8,-8 V 24 c 0,-4.416 3.584,-8 8,-8 h 160 c 4.416,0 8,3.584 8,8 v 64 c 0,4.416 -3.584,8 -8,8 h -88 c -2.128,0 -4.16,0.84 -5.656,2.344 L 184,140.688 V 104 c 0,-4.424 -3.576,-8 -8,-8 z"
   id="path2068"
   inkscape:connector-curvature="0" />
	<rect
   x="168"
   y="32"
   style="fill:#31324d"
   width="48"
   height="16"
   id="rect2070" />
	<rect
   x="168"
   y="64"
   style="fill:#31324d"
   width="144"
   height="16"
   id="rect2072" />
	<rect
   x="232"
   y="32"
   style="fill:#31324d"
   width="80"
   height="16"
   id="rect2074" />
</g>
<g
   id="g2078"
   transform="translate(0,-350)">
</g>
<g
   id="g2080"
   transform="translate(0,-350)">
</g>
<g
   id="g2082"
   transform="translate(0,-350)">
</g>
<g
   id="g2084"
   transform="translate(0,-350)">
</g>
<g
   id="g2086"
   transform="translate(0,-350)">
</g>
<g
   id="g2088"
   transform="translate(0,-350)">
</g>
<g
   id="g2090"
   transform="translate(0,-350)">
</g>
<g
   id="g2092"
   transform="translate(0,-350)">
</g>
<g
   id="g2094"
   transform="translate(0,-350)">
</g>
<g
   id="g2096"
   transform="translate(0,-350)">
</g>
<g
   id="g2098"
   transform="translate(0,-350)">
</g>
<g
   id="g2100"
   transform="translate(0,-350)">
</g>
<g
   id="g2102"
   transform="translate(0,-350)">
</g>
<g
   id="g2104"
   transform="translate(0,-350)">
</g>
<g
   id="g2106"
   transform="translate(0,-350)">
</g>
</svg>