<?xml version="1.0" encoding="UTF-8" standalone="no"?>
<!-- Generator: Adobe Illustrator 19.0.0, SVG Export Plug-In . SVG Version: 6.00 Build 0)  -->

<svg
   xmlns:dc="http://purl.org/dc/elements/1.1/"
   xmlns:cc="http://creativecommons.org/ns#"
   xmlns:rdf="http://www.w3.org/1999/02/22-rdf-syntax-ns#"
   xmlns:svg="http://www.w3.org/2000/svg"
   xmlns="http://www.w3.org/2000/svg"
   xmlns:sodipodi="http://sodipodi.sourceforge.net/DTD/sodipodi-0.dtd"
   xmlns:inkscape="http://www.inkscape.org/namespaces/inkscape"
   version="1.1"
   id="Layer_1"
   x="0px"
   y="0px"
   viewBox="0 0 124.11676 124.11674"
   xml:space="preserve"
   width="130"
   height="130"
   sodipodi:docname="event.svg"
   inkscape:version="0.92.5 (2060ec1f9f, 2020-04-08)"><metadata
   id="metadata1005"><rdf:RDF><cc:Work
       rdf:about=""><dc:format>image/svg+xml</dc:format><dc:type
         rdf:resource="http://purl.org/dc/dcmitype/StillImage" /><dc:title></dc:title></cc:Work></rdf:RDF></metadata><defs
   id="defs1003" /><sodipodi:namedview
   pagecolor="#ffffff"
   bordercolor="#666666"
   borderopacity="1"
   objecttolerance="10"
   gridtolerance="10"
   guidetolerance="10"
   inkscape:pageopacity="0"
   inkscape:pageshadow="2"
   inkscape:window-width="1362"
   inkscape:window-height="729"
   id="namedview1001"
   showgrid="false"
   inkscape:zoom="1.0644531"
   inkscape:cx="405.37248"
   inkscape:cy="30.53211"
   inkscape:window-x="0"
   inkscape:window-y="18"
   inkscape:window-maximized="0"
   inkscape:current-layer="Layer_1"
   units="px" />
<g
   id="g998"
   transform="matrix(0.24036697,0,0,0.24036697,3.7039488,3.0306456)">
	<path
   style="fill:#ffe563"
   d="m 333.48,405.045 c -31.911,0 -57.872,-25.961 -57.872,-57.872 0,-31.911 25.961,-57.872 57.872,-57.872 31.91,0 57.871,25.961 57.871,57.872 0,31.911 -25.961,57.872 -57.871,57.872 z m 0,-100.743 c -23.64,0 -42.872,19.232 -42.872,42.872 0,23.64 19.232,42.872 42.872,42.872 23.64,0 42.871,-19.232 42.871,-42.872 0,-23.64 -19.231,-42.872 -42.871,-42.872 z"
   id="path930"
   inkscape:connector-curvature="0" />
	<path
   style="fill:#e06919"
   d="m 62.048,117.704 h 207.768 c 19.741,0 35.744,16.003 35.744,35.744 v 3.151 c 0,19.741 -16.003,35.744 -35.744,35.744 H 62.048 c -19.741,0 -35.744,-16.003 -35.744,-35.744 v -3.151 c 0,-19.741 16.003,-35.744 35.744,-35.744 z"
   id="path932"
   inkscape:connector-curvature="0" />
	<path
   style="fill:#ffcbb3"
   d="m 328.588,230.994 c 0,20.455 -15.753,37.218 -35.784,38.821 -1.045,0.089 -2.107,0.133 -3.17,0.133 -2.727,0 -5.384,-0.275 -7.952,-0.815 H 47.058 c -2.568,0.54 -5.225,0.815 -7.952,0.815 H 39.08 C 17.571,269.93 0.153,252.504 0.153,230.995 c 0,-20.278 15.496,-36.934 35.296,-38.768 1.204,-0.124 2.426,-0.177 3.657,-0.177 1.638,0 3.241,0.097 4.826,0.292 h 240.876 c 1.585,-0.195 3.188,-0.292 4.826,-0.292 2.311,0 4.578,0.204 6.774,0.593 18.286,3.197 32.18,19.153 32.18,38.351 z"
   id="path934"
   inkscape:connector-curvature="0" />
	<path
   style="fill:#e89876"
   d="m 296.408,192.643 v 49.34 c 0,9.581 -1.248,18.906 -3.604,27.832 -1.045,0.089 -2.107,0.133 -3.17,0.133 -2.727,0 -5.384,-0.275 -7.952,-0.815 H 47.058 c -2.568,0.54 -5.225,0.815 -7.952,0.815 H 39.08 c -2.373,-8.97 -3.63,-18.33 -3.63,-27.964 v -49.757 c 1.204,-0.124 2.426,-0.177 3.657,-0.177 1.638,0 3.241,0.097 4.826,0.292 h 240.876 c 1.585,-0.195 3.188,-0.292 4.826,-0.292 2.31,0 4.577,0.203 6.773,0.593 z"
   id="path936"
   inkscape:connector-curvature="0" />
	<path
   style="fill:#e89876"
   d="m 307.351,239.668 c -2.896,0 -5.653,-1.687 -6.882,-4.511 -3.133,-7.208 -12.597,-4.903 -13.666,-4.616 -3.992,1.13 -8.107,-1.19 -9.237,-5.174 -1.132,-3.985 1.208,-8.139 5.192,-9.27 7.938,-2.253 24.729,-2.418 31.467,13.08 1.651,3.799 -0.089,8.217 -3.888,9.868 -0.973,0.423 -1.988,0.623 -2.986,0.623 z"
   id="path938"
   inkscape:connector-curvature="0" />
	<path
   style="fill:#e89876"
   d="m 25.392,239.667 c -0.999,0 -2.015,-0.201 -2.989,-0.625 -3.798,-1.653 -5.537,-6.072 -3.884,-9.87 3.811,-8.755 13.714,-16.875 30.089,-13.412 4.052,0.858 6.642,4.838 5.785,8.89 -0.857,4.052 -4.836,6.641 -8.89,5.785 -3.821,-0.809 -10.621,-1.27 -13.23,4.723 -1.229,2.823 -3.986,4.509 -6.881,4.509 z"
   id="path940"
   inkscape:connector-curvature="0" />
	<path
   style="fill:#27394c"
   d="m 284.807,438.433 v 50.394 H 47.057 v -50.394 c 0,-65.652 53.219,-118.879 118.871,-118.879 9.289,0 18.33,1.071 27.008,3.082 21.987,5.109 41.628,16.32 57.053,31.737 21.509,21.517 34.818,51.234 34.818,84.06 z"
   id="path942"
   inkscape:connector-curvature="0" />
	<path
   style="fill:#3e5268"
   d="m 284.807,438.433 v 50.394 H 101.073 v -50.394 c 0,-56.363 39.228,-103.569 91.863,-115.798 21.987,5.109 41.628,16.32 57.053,31.737 21.509,21.518 34.818,51.235 34.818,84.061 z"
   id="path944"
   inkscape:connector-curvature="0" />
	<polyline
   style="fill:#ffffff"
   points="107.876,359.673 165.927,477.479 223.979,359.673  "
   id="polyline946" />
	<polyline
   style="fill:#fc74af"
   points="114.902,365.733 165.927,430.909 216.952,365.733  "
   id="polyline948" />
	<polyline
   style="fill:#bbb8cc"
   points="223.779,360.087 197.311,413.798 165.928,379.637 165.93,379.637 134.548,413.798    108.08,360.087  "
   id="polyline950" />
	<path
   style="fill:#172635"
   d="m 165.93,477.479 v 11.35 h -29.2 L 106.29,458.389 119,431.999 H 89.67 l -15.03,-69.69 c 6.9,-8.29 14.92,-15.61 23.82,-21.75 z"
   id="path952"
   inkscape:connector-curvature="0" />
	<path
   style="fill:#172635"
   d="m 165.924,477.479 v 11.35 h 29.2 l 30.44,-30.44 -12.71,-26.39 h 29.33 l 15.03,-69.69 c -6.9,-8.29 -14.92,-15.61 -23.82,-21.75 z"
   id="path954"
   inkscape:connector-curvature="0" />
	<path
   style="fill:#e89876"
   d="m 284.807,174.791 v 80.953 c 0,57.93 -41.442,106.181 -96.299,116.728 -7.305,1.408 -14.859,2.143 -22.58,2.143 -65.652,0 -118.871,-53.219 -118.871,-118.871 v -80.953 c 0,-65.651 53.219,-118.879 118.871,-118.879 7.722,0 15.275,0.735 22.58,2.143 23.776,4.569 45.028,16.223 61.481,32.675 21.509,21.518 34.818,51.235 34.818,84.061 z"
   id="path956"
   inkscape:connector-curvature="0" />
	<path
   style="fill:#ffcbb3"
   d="m 284.807,174.791 v 80.953 c 0,57.93 -41.442,106.181 -96.299,116.728 C 133.651,361.925 92.209,313.674 92.209,255.744 v -80.953 c 0,-57.93 41.442,-106.19 96.299,-116.736 23.776,4.569 45.028,16.223 61.481,32.675 21.509,21.518 34.818,51.235 34.818,84.061 z"
   id="path958"
   inkscape:connector-curvature="0" />
	<g
   id="g966">
		<g
   id="g964">
			<path
   style="fill:#172635"
   d="m 129.145,247.215 c -4.142,0 -7.5,-3.358 -7.5,-7.5 v -29.22 c 0,-4.142 3.358,-7.5 7.5,-7.5 4.142,0 7.5,3.358 7.5,7.5 v 29.22 c 0,4.142 -3.358,7.5 -7.5,7.5 z"
   id="path960"
   inkscape:connector-curvature="0" />
			<path
   style="fill:#172635"
   d="m 232.72,247.215 c -4.142,0 -7.5,-3.358 -7.5,-7.5 v -29.22 c 0,-4.142 3.358,-7.5 7.5,-7.5 4.142,0 7.5,3.358 7.5,7.5 v 29.22 c 0,4.142 -3.358,7.5 -7.5,7.5 z"
   id="path962"
   inkscape:connector-curvature="0" />
		</g>
	</g>
	<path
   style="fill:#f9a74d"
   d="m 277.739,0 -53.33,53.33 c -4.517,-11.093 -15.392,-18.921 -28.108,-18.921 -10.435,0 -19.636,5.269 -25.099,13.289 -13.937,-17.17 -35.204,-28.145 -59.045,-28.145 -42.002,0 -76.052,34.05 -76.052,76.052 0,42.002 34.05,76.052 76.052,76.052 17.546,0 33.692,-5.958 46.56,-15.939 37.768,21.646 86.764,16.361 119.023,-15.897 C 316.349,101.209 316.349,38.61 277.739,0 Z"
   id="path968"
   inkscape:connector-curvature="0" />
	<path
   style="fill:#e06919"
   d="m 81.742,95.605 c 0,34.048 22.377,62.878 53.224,72.566 -7.187,2.268 -14.857,3.485 -22.81,3.485 -42.002,0 -76.05,-34.048 -76.05,-76.05 0,-42.002 34.049,-76.05 76.05,-76.05 7.953,0 15.607,1.217 22.81,3.485 -30.848,9.686 -53.224,38.515 -53.224,72.564 z"
   id="path970"
   inkscape:connector-curvature="0" />
	<polygon
   style="fill:#fc74af"
   points="165.927,477.479 151.847,448.899 165.927,430.909 180.007,448.899 "
   id="polygon972" />
	<path
   style="fill:#fc74af"
   d="m 206.738,289.643 c 0,14.25 -11.55,25.8 -25.8,25.8 -14.26,0 -25.81,-11.55 -25.81,-25.8 0,-3.63 0.75,-6.52 2.12,-8.8 3.94,-6.68 13.06,-8.21 23.69,-8.21 10.62,0 19.74,1.53 23.68,8.21 1.37,2.28 2.12,5.17 2.12,8.8 z"
   id="path974"
   inkscape:connector-curvature="0" />
	<path
   style="fill:#ffffff"
   d="m 204.617,280.843 c -3.95,6.67 -13.07,8.2 -23.68,8.2 -10.62,0 -19.74,-1.53 -23.69,-8.2 3.94,-6.68 13.06,-8.21 23.69,-8.21 10.621,0 19.741,1.53 23.68,8.21 z"
   id="path976"
   inkscape:connector-curvature="0" />
	<polygon
   style="fill:#ffe563"
   points="423.299,368.679 254.968,328.655 254.968,266.285 423.299,226.261 "
   id="polygon978" />
	<path
   style="fill:#e89876"
   d="m 349.957,392.403 -16.535,43.867 -52.635,-19.84 16.535,-43.867 c 1.827,-4.847 7.235,-7.286 12.073,-5.463 l 35.099,13.23 c 4.838,1.824 7.29,7.226 5.463,12.073 z"
   id="path980"
   inkscape:connector-curvature="0" />
	<polygon
   style="fill:#ffa829"
   points="423.299,368.679 254.968,328.655 254.968,305.884 423.299,315.032 "
   id="polygon982" />
	<path
   style="fill:#ffcbb3"
   d="m 349.952,392.403 -2.02,5.37 c -0.02,0.05 -0.04,0.1 -0.06,0.15 -3.7,9.59 -14.47,14.41 -24.11,10.78 l -13.87,-5.23 -3.67,-1.38 c -9.6,-3.62 -14.5,-14.3 -11.01,-23.93 0.02,-0.08 0.05,-0.15 0.08,-0.23 l 2.03,-5.37 c 1.82,-4.85 7.23,-7.29 12.07,-5.46 l 21.08,7.95 c 0.04,0.01 0.09,0.02 0.13,0.04 l 13.89,5.24 c 4.84,1.82 7.29,7.22 5.46,12.07 z"
   id="path984"
   inkscape:connector-curvature="0" />
	<polygon
   style="fill:#3e5268"
   points="313.609,488.829 253.509,488.829 280.788,416.429 333.419,436.269 "
   id="polygon986" />
	<polygon
   style="fill:#27394c"
   points="277.538,488.829 253.509,488.829 280.788,416.429 301.839,424.359 "
   id="polygon988" />
	<path
   style="fill:#96efff"
   d="m 481.176,297.183 h -36.997 c -4.143,0 -7.5,-3.358 -7.5,-7.5 0,-4.142 3.357,-7.5 7.5,-7.5 h 36.997 c 4.143,0 7.5,3.358 7.5,7.5 0,4.142 -3.357,7.5 -7.5,7.5 z"
   id="path990"
   inkscape:connector-curvature="0" />
	<g
   id="g996">
		<path
   style="fill:#96efff"
   d="m 444.183,259.186 c -2.86,0 -5.592,-1.645 -6.843,-4.423 -1.7,-3.777 -0.018,-8.217 3.76,-9.918 l 29,-13.057 c 3.775,-1.7 8.217,-0.017 9.918,3.76 1.7,3.777 0.018,8.217 -3.76,9.918 l -29,13.057 c -0.999,0.45 -2.046,0.663 -3.075,0.663 z"
   id="path992"
   inkscape:connector-curvature="0" />
		<path
   style="fill:#96efff"
   d="m 473.175,348.241 c -1.03,0 -2.076,-0.213 -3.075,-0.663 l -29,-13.057 c -3.777,-1.701 -5.46,-6.141 -3.76,-9.918 1.702,-3.778 6.146,-5.458 9.918,-3.76 l 29,13.057 c 3.777,1.701 5.46,6.141 3.76,9.918 -1.251,2.778 -3.983,4.423 -6.843,4.423 z"
   id="path994"
   inkscape:connector-curvature="0" />
	</g>
</g>















</svg>