<?xml version="1.0" encoding="UTF-8" standalone="no"?>
<!-- Generator: Adobe Illustrator 19.0.0, SVG Export Plug-In . SVG Version: 6.00 Build 0)  -->

<svg
   xmlns:dc="http://purl.org/dc/elements/1.1/"
   xmlns:cc="http://creativecommons.org/ns#"
   xmlns:rdf="http://www.w3.org/1999/02/22-rdf-syntax-ns#"
   xmlns:svg="http://www.w3.org/2000/svg"
   xmlns="http://www.w3.org/2000/svg"
   xmlns:sodipodi="http://sodipodi.sourceforge.net/DTD/sodipodi-0.dtd"
   xmlns:inkscape="http://www.inkscape.org/namespaces/inkscape"
   version="1.1"
   id="Capa_1"
   x="0px"
   y="0px"
   viewBox="0 0 130 130"
   xml:space="preserve"
   sodipodi:docname="sign.svg"
   inkscape:version="0.92.5 (2060ec1f9f, 2020-04-08)"
   width="130"
   height="130"><metadata
   id="metadata1245"><rdf:RDF><cc:Work
       rdf:about=""><dc:format>image/svg+xml</dc:format><dc:type
         rdf:resource="http://purl.org/dc/dcmitype/StillImage" /><dc:title></dc:title></cc:Work></rdf:RDF></metadata><defs
   id="defs1243" /><sodipodi:namedview
   pagecolor="#ffffff"
   bordercolor="#666666"
   borderopacity="1"
   objecttolerance="10"
   gridtolerance="10"
   guidetolerance="10"
   inkscape:pageopacity="0"
   inkscape:pageshadow="2"
   inkscape:window-width="1362"
   inkscape:window-height="729"
   id="namedview1241"
   showgrid="false"
   inkscape:zoom="0.95160904"
   inkscape:cx="140.65718"
   inkscape:cy="106.51136"
   inkscape:window-x="0"
   inkscape:window-y="18"
   inkscape:window-maximized="0"
   inkscape:current-layer="Capa_1" />
<g
   id="g1208"
   transform="matrix(0.21609851,0,0,0.21609851,10.508126,10.203694)">
	<g
   id="g1206">
		<path
   d="m 494.657,115.561 -32,-48 c -1.484,-2.225 -3.982,-3.56 -6.656,-3.56 h -184 v -56 c 0,-4.418 -3.582,-8 -8,-8 h -32 c -4.418,0 -8,3.582 -8,8 v 56 h -136 c -4.418,0 -8,3.582 -8,8 v 96 c 0,4.418 3.582,8 8,8 h 136 v 24 h -184 c -2.674,0 -5.172,1.335 -6.656,3.56 l -32,48 c -1.794,2.688 -1.794,6.192 0,8.88 l 32,48 c 1.484,2.225 3.982,3.56 6.656,3.56 h 184 v 176 c 0,4.418 3.582,8 8,8 h 32 c 4.418,0 8,-3.582 8,-8 v -176 h 136 c 4.418,0 8,-3.582 8,-8 v -96 c 0,-4.418 -3.582,-8 -8,-8 h -136 v -24 h 184 c 2.674,0 5.172,-1.335 6.656,-3.56 l 32,-48 c 1.794,-2.688 1.794,-6.192 0,-8.88 z M 240.001,16.001 h 16 v 48 h -16 z m 16,464 h -16 v -168 h 16 z m 144,-264 v 80 H 44.281 l -26.68,-40 26.664,-40 z m -160,-16 v -24 h 16 v 24 z m 211.736,-40 H 96.001 v -80 h 355.72 l 26.68,40 z"
   id="path1204"
   inkscape:connector-curvature="0" />
	</g>
</g>
<g
   id="g1210"
   transform="translate(0,-366.00202)">
</g>
<g
   id="g1212"
   transform="translate(0,-366.00202)">
</g>
<g
   id="g1214"
   transform="translate(0,-366.00202)">
</g>
<g
   id="g1216"
   transform="translate(0,-366.00202)">
</g>
<g
   id="g1218"
   transform="translate(0,-366.00202)">
</g>
<g
   id="g1220"
   transform="translate(0,-366.00202)">
</g>
<g
   id="g1222"
   transform="translate(0,-366.00202)">
</g>
<g
   id="g1224"
   transform="translate(0,-366.00202)">
</g>
<g
   id="g1226"
   transform="translate(0,-366.00202)">
</g>
<g
   id="g1228"
   transform="translate(0,-366.00202)">
</g>
<g
   id="g1230"
   transform="translate(0,-366.00202)">
</g>
<g
   id="g1232"
   transform="translate(0,-366.00202)">
</g>
<g
   id="g1234"
   transform="translate(0,-366.00202)">
</g>
<g
   id="g1236"
   transform="translate(0,-366.00202)">
</g>
<g
   id="g1238"
   transform="translate(0,-366.00202)">
</g>
</svg>